# xmcd
#
# Track frame offsets: 
#        150
#        7337
#        29840
#        44107
#        63812
#        87757
#        118325
#        139178
#        156753
#        184107
#        202600
#        230074
#        266189
#        286147
#
# Disc length: 4131 seconds
#
# Revision: 1
# Processed by: cddbd v1.5.2PL0 Copyright (c) Steve Scherf et al.
# Submitted via: ExactAudioCopyFreeDBPlugin 1.0
#
DISCID=d110210e
DTITLE=Victor Wooten - Words And Tones
DYEAR=2012
DGENRE=Jazz
TTITLE0=Listen And Be Silent
TTITLE1=Sword And Stone
TTITLE2=Love Is My Favorite Word
TTITLE3=A Woman's Strength
TTITLE4=I Can't Make You Love Me
TTITLE5=Brooklyn
TTITLE6=Say Word
TTITLE7=Be What U Are (I Love U More)
TTITLE8=Get It Right
TTITLE9=When U Grow Up
TTITLE10=Overjoyed
TTITLE11=Heaven
TTITLE12=It's All Right
TTITLE13=Love To Hear You Laugh
EXTD=YEAR: 2012
EXTT0=
EXTT1=
EXTT2=
EXTT3=
EXTT4=
EXTT5=
EXTT6=
EXTT7=
EXTT8=
EXTT9=
EXTT10=
EXTT11=
EXTT12=
EXTT13=
PLAYORDER=
